<?xml version="1.0" encoding="utf-8"?>
<!-- Generator: Adobe Illustrator 17.1.0, SVG Export Plug-In . SVG Version: 6.00 Build 0)  -->
<!DOCTYPE svg PUBLIC "-//W3C//DTD SVG 1.1//EN" "http://www.w3.org/Graphics/SVG/1.1/DTD/svg11.dtd">
<svg version="1.1" id="Layer_1" xmlns="http://www.w3.org/2000/svg" xmlns:xlink="http://www.w3.org/1999/xlink" x="0px" y="0px"
	 viewBox="0 0 500 500" enable-background="new 0 0 500 500" xml:space="preserve">
<g>
	<rect x="-67.9" y="-222.4" fill="#F1662A" stroke="#000000" stroke-miterlimit="10" width="82.5" height="82.5"/>
	<text transform="matrix(1 0 0 1 -46.8948 -181.138)" fill="#FFFFFF" font-family="'MyriadPro-Regular'" font-size="12">#F16529</text>
</g>
<g>
	<rect x="39.6" y="-222.4" fill="#2AA8E0" stroke="#000000" stroke-miterlimit="10" width="82.5" height="82.5"/>
	<text transform="matrix(1 0 0 1 60.6137 -181.138)" fill="#FFFFFF" font-family="'MyriadPro-Regular'" font-size="12">#2AA9E0</text>
</g>
<g>
	<rect x="147.1" y="-222.4" fill="#F0BF23" stroke="#000000" stroke-miterlimit="10" width="82.5" height="82.5"/>
	<text transform="matrix(1 0 0 1 168.1167 -181.138)" fill="#FFFFFF" font-family="'MyriadPro-Regular'" font-size="12">#F1BF26</text>
</g>
<rect fill="none" width="500" height="500"/>
<rect y="-1" fill="none" width="500" height="500"/>
<g>
	<g>
		<g>
			<path fill="#F0BF23" d="M109.3,262.6c-11.3,0-22.5-1.9-33.4-5.8c-10.9-3.9-20.8-9.8-29.8-17.8l19.4-23.1
				c6.8,5.5,13.8,9.9,20.9,13.2c7.2,3.3,15,4.9,23.5,4.9c6.8,0,12.1-1.2,15.8-3.7c3.8-2.5,5.6-5.9,5.6-10.3v-0.4
				c0-2.1-0.4-4-1.2-5.6c-0.8-1.6-2.3-3.2-4.5-4.6c-2.2-1.4-5.3-2.8-9.2-4.3c-3.9-1.4-9-2.9-15.2-4.5c-7.5-2-14.4-4.1-20.5-6.3
				c-6.1-2.2-11.3-5-15.6-8.3c-4.3-3.3-7.6-7.5-9.9-12.5c-2.3-5-3.5-11.1-3.5-18.5v-0.4c0-6.8,1.3-13,3.8-18.4
				c2.5-5.5,6.1-10.2,10.7-14.2c4.6-4,10-7,16.4-9.2c6.4-2.1,13.4-3.2,21-3.2c10.9,0,20.9,1.6,30.1,4.9c9.1,3.2,17.5,7.9,25.2,13.9
				l-17,24.6c-6.7-4.5-13.2-8.1-19.6-10.7c-6.4-2.6-12.8-3.9-19.1-3.9c-6.4,0-11.2,1.2-14.4,3.7c-3.2,2.5-4.8,5.6-4.8,9.3v0.4
				c0,2.4,0.5,4.5,1.4,6.3c0.9,1.8,2.6,3.4,5,4.8c2.4,1.4,5.7,2.8,9.9,4c4.2,1.3,9.5,2.8,15.9,4.5c7.5,2,14.2,4.2,20.1,6.7
				c5.9,2.5,10.9,5.5,14.9,8.9c4.1,3.5,7.1,7.6,9.2,12.3c2.1,4.7,3.1,10.3,3.1,16.8v0.4c0,7.4-1.3,14-4,19.7
				c-2.7,5.8-6.4,10.6-11.2,14.5c-4.8,3.9-10.5,6.9-17.1,8.9C124.8,261.5,117.4,262.6,109.3,262.6z"/>
			<path fill="#F0BF23" d="M192.3,111.6H225v119.1h74.2v29.8h-107V111.6z"/>
			<path fill="#F0BF23" d="M385.1,263c-10.9,0-21.1-2-30.4-6c-9.4-4-17.4-9.4-24.2-16.3c-6.8-6.9-12.1-15-15.9-24.3
				c-3.8-9.4-5.7-19.4-5.7-30V186c0-10.6,1.9-20.6,5.7-29.9c3.8-9.3,9.1-17.4,15.9-24.5c6.8-7,15-12.5,24.5-16.6
				c9.5-4,20-6.1,31.5-6.1c7.1,0,13.5,0.6,19.1,1.7c5.7,1.1,10.8,2.7,15.5,4.7c4.7,2,9,4.4,13,7.2c4,2.8,7.7,6,11.1,9.4l-20.8,24
				c-5.8-5.2-11.7-9.4-17.8-12.3c-6-3-12.8-4.5-20.3-4.5c-6.2,0-12,1.2-17.3,3.6c-5.3,2.4-9.9,5.7-13.7,10
				c-3.8,4.3-6.8,9.2-8.9,14.8c-2.1,5.6-3.2,11.6-3.2,18v0.4c0,6.4,1.1,12.4,3.2,18.1c2.1,5.7,5.1,10.6,8.8,14.9
				c3.8,4.3,8.3,7.6,13.6,10.1c5.3,2.5,11.2,3.7,17.5,3.7c8.5,0,15.7-1.6,21.6-4.8c5.9-3.2,11.7-7.4,17.5-12.7l20.8,21.1
				c-3.8,4.1-7.8,7.8-11.9,11.1c-4.1,3.3-8.6,6.1-13.5,8.4c-4.9,2.3-10.2,4.1-16.1,5.3C398.9,262.4,392.4,263,385.1,263z"/>
		</g>
		<g>
			<path fill="#F1662A" d="M53.8,274.6h88v23.1H79.3v24.6h55.1v23.1H79.3v44.7H53.8V274.6z"/>
			<path fill="#F1662A" d="M153.2,274.6h27.2l23.9,78.3l25.9-78.6h21.8l25.9,78.6l23.9-78.3h26.6L289.1,391H267l-26.1-75.6
				L214.8,391h-22.1L153.2,274.6z"/>
			<path fill="#F1662A" d="M347.4,274.6h45.1c9.1,0,17.4,1.5,24.9,4.4c7.5,2.9,13.9,7,19.4,12.1c5.4,5.2,9.7,11.3,12.6,18.2
				c3,7,4.5,14.6,4.5,22.7v0.3c0,8.1-1.5,15.7-4.5,22.8c-3,7-7.2,13.2-12.6,18.3c-5.4,5.2-11.9,9.2-19.4,12.2
				c-7.5,3-15.8,4.5-24.9,4.5h-45.1V274.6z M392.4,367.2c5.2,0,9.9-0.8,14.2-2.5c4.3-1.7,8-4,11.1-7.1c3.1-3.1,5.4-6.7,7.1-11
				c1.7-4.2,2.5-8.9,2.5-13.9v-0.3c0-5.2-0.8-9.9-2.5-14.1c-1.7-4.2-4-7.9-7.1-11c-3.1-3.1-6.8-5.5-11.1-7.2
				c-4.3-1.7-9-2.6-14.2-2.6h-19.6v69.7H392.4z"/>
		</g>
	</g>
	<g>
		<path fill="#2AA8E0" d="M46.2,473.9l23-30.3l-23-30.3l20.5-10.3l29.7,39.6v1.4l-29.7,39.6L46.2,473.9z"/>
		<path fill="#2AA8E0" d="M97.2,473.9l23-30.3l-23-30.3l20.5-10.3l29.7,39.6v1.4l-29.7,39.6L97.2,473.9z"/>
		<path fill="#2AA8E0" d="M148.3,473.9l23-30.3l-23-30.3l20.5-10.3l29.7,39.6v1.4l-29.7,39.6L148.3,473.9z"/>
		<path fill="#2AA8E0" d="M199.3,473.9l23-30.3l-23-30.3l20.5-10.3l29.7,39.6v1.4l-29.7,39.6L199.3,473.9z"/>
		<path fill="#2AA8E0" d="M250.4,473.9l23-30.3l-23-30.3l20.5-10.3l29.7,39.6v1.4l-29.7,39.6L250.4,473.9z"/>
		<path fill="#2AA8E0" d="M301.5,473.9l23-30.3l-23-30.3l20.5-10.3l29.7,39.6v1.4L322,483.9L301.5,473.9z"/>
		<path fill="#2AA8E0" d="M352.5,473.9l23-30.3l-23-30.3l20.5-10.3l29.7,39.6v1.4L373,483.9L352.5,473.9z"/>
		<path fill="#2AA8E0" d="M403.6,473.9l23-30.3l-23-30.3l20.5-10.3l29.7,39.6v1.4l-29.7,39.6L403.6,473.9z"/>
	</g>
	<g>
		<path fill="#2AA8E0" d="M46.2,86.9l23-30.3l-23-30.3l20.5-10.3l29.7,39.6v1.4L66.7,96.9L46.2,86.9z"/>
		<path fill="#2AA8E0" d="M97.2,86.9l23-30.3l-23-30.3l20.5-10.3l29.7,39.6v1.4l-29.7,39.6L97.2,86.9z"/>
		<path fill="#2AA8E0" d="M148.3,86.9l23-30.3l-23-30.3l20.5-10.3l29.7,39.6v1.4l-29.7,39.6L148.3,86.9z"/>
		<path fill="#2AA8E0" d="M199.3,86.9l23-30.3l-23-30.3l20.5-10.3l29.7,39.6v1.4l-29.7,39.6L199.3,86.9z"/>
		<path fill="#2AA8E0" d="M250.4,86.9l23-30.3l-23-30.3l20.5-10.3l29.7,39.6v1.4l-29.7,39.6L250.4,86.9z"/>
		<path fill="#2AA8E0" d="M301.5,86.9l23-30.3l-23-30.3L322,16.1l29.7,39.6v1.4L322,96.9L301.5,86.9z"/>
		<path fill="#2AA8E0" d="M352.5,86.9l23-30.3l-23-30.3L373,16.1l29.7,39.6v1.4L373,96.9L352.5,86.9z"/>
		<path fill="#2AA8E0" d="M403.6,86.9l23-30.3l-23-30.3l20.5-10.3l29.7,39.6v1.4l-29.7,39.6L403.6,86.9z"/>
	</g>
</g>
</svg>
